<svg width="1098" height="1080" viewBox="0 0 1098 1080" fill="none" xmlns="http://www.w3.org/2000/svg">
<path opacity="0.5" d="M0 0H1098V730C1098 923.3 941.3 1080 748 1080H0V0Z" fill="url(#paint0_linear_269_69)"/>
<mask id="mask0_269_69" style="mask-type:alpha" maskUnits="userSpaceOnUse" x="578" y="0" width="520" height="698">
<rect x="578" width="520" height="698" fill="#D9D9D9"/>
</mask>
<g mask="url(#mask0_269_69)">
<path d="M710.001 203.53H1016.62C1027.01 203.57 1037.29 205.643 1046.88 209.63C1056.47 213.616 1065.17 219.439 1072.49 226.765C1079.81 234.091 1085.61 242.777 1089.55 252.328C1093.49 261.878 1095.49 272.106 1095.45 282.426V587.191C1095.48 597.529 1093.45 607.77 1089.49 617.329C1085.52 626.887 1079.7 635.575 1072.35 642.894C1064.99 650.214 1056.26 656.021 1046.64 659.983C1037.03 663.945 1026.72 665.985 1016.31 665.985H1013.43C1003.01 665.998 992.7 663.968 983.078 660.01C973.456 656.053 964.716 650.246 957.362 642.924C950.007 635.602 944.182 626.909 940.221 617.344C936.261 607.78 934.243 597.532 934.283 587.191V362.649H710.001C689.329 361.912 669.751 353.24 655.388 338.457C641.026 323.675 633 303.936 633 283.396C633 262.856 641.026 243.117 655.388 228.334C669.751 213.552 689.329 204.879 710.001 204.143V203.53Z" fill="#0088CE" fill-opacity="0.1"/>
<path d="M660.37 -182.485L1484.05 640.129C1500.62 656.684 1523.11 665.985 1546.55 665.985C1569.99 665.985 1592.48 656.684 1609.05 640.129C1625.66 623.483 1634.98 600.941 1634.98 577.442C1634.98 553.943 1625.66 531.402 1609.05 514.756L786.501 -310.2C769.974 -326.413 747.833 -335.649 724.67 -335.99C701.507 -336.332 679.102 -327.752 662.104 -312.033C653.335 -304.046 646.249 -294.392 641.262 -283.636C636.274 -272.88 633.485 -261.239 633.058 -249.393C632.631 -237.547 634.574 -225.735 638.773 -214.648C642.973 -203.562 649.344 -193.424 657.515 -184.827L660.37 -182.485Z" fill="#BDDA57" fill-opacity="0.2"/>
<path d="M1019.05 203.53H1021.25C1041.17 204.249 1060.03 212.684 1073.87 227.06C1087.71 241.436 1095.44 260.632 1095.44 280.606C1095.44 300.581 1087.71 319.776 1073.87 334.152C1060.03 348.528 1041.17 356.963 1021.25 357.682H942.289C941.292 357.682 941.292 357.682 941.292 356.783V280.756C941.45 260.211 949.719 240.565 964.291 226.113C978.863 211.66 998.552 203.577 1019.05 203.63V203.53Z" fill="#00A8E4" fill-opacity="0.15"/>
</g>
<g opacity="0.25">
<path d="M325.892 1136.45H19.3186C8.88615 1136.48 -1.44871 1134.46 -11.091 1130.51C-20.7333 1126.56 -29.4927 1120.75 -36.8648 1113.43C-44.2369 1106.1 -50.0762 1097.4 -54.0466 1087.83C-58.0171 1078.25 -60.0401 1068 -59.9994 1057.64V752.811C-60.0541 731.981 -51.7747 711.981 -36.9798 697.204C-22.1848 682.427 -2.08421 674.081 18.9071 674H22.3021C32.7259 673.987 43.0497 676.017 52.6801 679.976C62.3106 683.934 71.0577 689.742 78.4189 697.066C85.7801 704.389 91.6102 713.084 95.5742 722.651C99.5382 732.218 101.558 742.467 101.517 752.811V978.934H325.892C346.447 979.668 365.914 988.288 380.194 1002.98C394.475 1017.67 402.455 1037.28 402.455 1057.69C402.455 1078.11 394.475 1097.72 380.194 1112.41C365.914 1127.1 346.447 1135.72 325.892 1136.45Z" fill="#00A8E4" fill-opacity="0.3"/>
<path d="M16.2881 1136.45H14.2916C-5.65412 1135.73 -24.5434 1127.3 -38.4001 1112.92C-52.2567 1098.55 -60 1079.35 -60 1059.38C-60 1039.4 -52.2567 1020.21 -38.4001 1005.83C-24.5434 991.457 -5.65412 983.022 14.2916 982.303H94.1515V1059.33C94.0195 1079.88 85.7482 1099.54 71.1517 1114C56.5552 1128.46 36.825 1136.53 16.2881 1136.45Z" fill="#68CEF2"/>
</g>
<path d="M257.24 563V539.96H266.216C267.592 539.96 268.765 540.243 269.736 540.808C270.717 541.373 271.464 542.12 271.976 543.048C272.499 543.965 272.76 544.957 272.76 546.024C272.76 547.272 272.44 548.365 271.8 549.304C271.16 550.243 270.296 550.888 269.208 551.24L269.176 550.456C270.659 550.851 271.811 551.576 272.632 552.632C273.453 553.688 273.864 554.947 273.864 556.408C273.864 557.752 273.587 558.915 273.032 559.896C272.488 560.877 271.699 561.64 270.664 562.184C269.64 562.728 268.424 563 267.016 563H257.24ZM260.12 560.28H266.472C267.325 560.28 268.088 560.125 268.76 559.816C269.432 559.496 269.96 559.048 270.344 558.472C270.739 557.896 270.936 557.203 270.936 556.392C270.936 555.613 270.76 554.915 270.408 554.296C270.067 553.677 269.581 553.187 268.952 552.824C268.333 552.451 267.613 552.264 266.792 552.264H260.12V560.28ZM260.12 549.576H266.184C266.867 549.576 267.48 549.432 268.024 549.144C268.579 548.845 269.016 548.429 269.336 547.896C269.667 547.363 269.832 546.739 269.832 546.024C269.832 545.032 269.496 544.221 268.824 543.592C268.152 542.963 267.272 542.648 266.184 542.648H260.12V549.576ZM285.052 563.48C283.335 563.48 281.852 563.091 280.604 562.312C279.367 561.533 278.412 560.456 277.74 559.08C277.068 557.704 276.732 556.125 276.732 554.344C276.732 552.531 277.074 550.941 277.756 549.576C278.439 548.211 279.404 547.149 280.652 546.392C281.9 545.624 283.367 545.24 285.052 545.24C286.78 545.24 288.269 545.629 289.517 546.408C290.765 547.176 291.719 548.248 292.381 549.624C293.053 550.989 293.389 552.563 293.389 554.344C293.389 556.147 293.053 557.736 292.381 559.112C291.709 560.477 290.749 561.549 289.5 562.328C288.252 563.096 286.77 563.48 285.052 563.48ZM285.052 560.776C286.844 560.776 288.178 560.179 289.052 558.984C289.927 557.789 290.365 556.243 290.365 554.344C290.365 552.392 289.922 550.84 289.036 549.688C288.151 548.525 286.823 547.944 285.052 547.944C283.847 547.944 282.855 548.216 282.076 548.76C281.298 549.304 280.716 550.056 280.332 551.016C279.948 551.976 279.756 553.085 279.756 554.344C279.756 556.285 280.204 557.843 281.1 559.016C281.996 560.189 283.314 560.776 285.052 560.776ZM304.911 563.48C303.194 563.48 301.711 563.091 300.463 562.312C299.226 561.533 298.271 560.456 297.599 559.08C296.927 557.704 296.591 556.125 296.591 554.344C296.591 552.531 296.933 550.941 297.615 549.576C298.298 548.211 299.263 547.149 300.511 546.392C301.759 545.624 303.226 545.24 304.911 545.24C306.639 545.24 308.127 545.629 309.375 546.408C310.623 547.176 311.578 548.248 312.239 549.624C312.911 550.989 313.247 552.563 313.247 554.344C313.247 556.147 312.911 557.736 312.239 559.112C311.567 560.477 310.607 561.549 309.359 562.328C308.111 563.096 306.629 563.48 304.911 563.48ZM304.911 560.776C306.703 560.776 308.037 560.179 308.911 558.984C309.786 557.789 310.223 556.243 310.223 554.344C310.223 552.392 309.781 550.84 308.895 549.688C308.01 548.525 306.682 547.944 304.911 547.944C303.706 547.944 302.714 548.216 301.935 548.76C301.157 549.304 300.575 550.056 300.191 551.016C299.807 551.976 299.615 553.085 299.615 554.344C299.615 556.285 300.063 557.843 300.959 559.016C301.855 560.189 303.173 560.776 304.911 560.776ZM317.394 563L317.41 539.96H320.29V554.04L327.538 545.72H331.234L323.602 554.36L332.13 563H328.146L320.29 554.68V563H317.394ZM334.682 542.664V539.72H337.53V542.664H334.682ZM334.682 563V545.72H337.53V563H334.682ZM355.275 563V554.344C355.275 553.523 355.201 552.733 355.051 551.976C354.913 551.219 354.662 550.541 354.299 549.944C353.947 549.336 353.467 548.856 352.859 548.504C352.262 548.152 351.505 547.976 350.587 547.976C349.873 547.976 349.222 548.099 348.635 548.344C348.059 548.579 347.563 548.941 347.147 549.432C346.731 549.923 346.406 550.541 346.171 551.288C345.947 552.024 345.835 552.893 345.835 553.896L343.963 553.32C343.963 551.645 344.262 550.211 344.859 549.016C345.467 547.811 346.315 546.888 347.403 546.248C348.502 545.597 349.793 545.272 351.275 545.272C352.395 545.272 353.35 545.448 354.139 545.8C354.929 546.152 355.585 546.621 356.107 547.208C356.63 547.784 357.041 548.435 357.339 549.16C357.638 549.875 357.846 550.605 357.963 551.352C358.091 552.088 358.155 552.787 358.155 553.448V563H355.275ZM342.955 563V545.72H345.515V550.344H345.835V563H342.955ZM369.947 571.16C369.04 571.16 368.155 571.021 367.291 570.744C366.427 570.467 365.632 570.045 364.907 569.48C364.192 568.925 363.595 568.221 363.115 567.368L365.723 565.992C366.15 566.835 366.752 567.448 367.531 567.832C368.32 568.216 369.131 568.408 369.963 568.408C371.062 568.408 371.974 568.205 372.699 567.8C373.424 567.405 373.958 566.813 374.299 566.024C374.651 565.235 374.822 564.253 374.811 563.08V558.36H375.147V545.72H377.675V563.112C377.675 563.581 377.659 564.035 377.627 564.472C377.606 564.909 377.552 565.341 377.467 565.768C377.243 566.995 376.8 568.003 376.139 568.792C375.478 569.592 374.624 570.184 373.579 570.568C372.534 570.963 371.323 571.16 369.947 571.16ZM369.739 563.48C368.128 563.48 366.747 563.08 365.595 562.28C364.443 561.469 363.552 560.376 362.923 559C362.304 557.624 361.995 556.072 361.995 554.344C361.995 552.616 362.304 551.064 362.923 549.688C363.552 548.312 364.443 547.229 365.595 546.44C366.747 545.64 368.123 545.24 369.723 545.24C371.355 545.24 372.726 545.635 373.835 546.424C374.944 547.213 375.782 548.296 376.347 549.672C376.923 551.048 377.211 552.605 377.211 554.344C377.211 556.061 376.923 557.613 376.347 559C375.782 560.376 374.944 561.469 373.835 562.28C372.726 563.08 371.36 563.48 369.739 563.48ZM370.091 560.872C371.254 560.872 372.208 560.595 372.955 560.04C373.702 559.475 374.251 558.701 374.603 557.72C374.966 556.728 375.147 555.603 375.147 554.344C375.147 553.064 374.966 551.939 374.603 550.968C374.251 549.987 373.707 549.224 372.971 548.68C372.235 548.125 371.302 547.848 370.171 547.848C368.998 547.848 368.027 548.136 367.259 548.712C366.502 549.288 365.936 550.067 365.563 551.048C365.2 552.029 365.019 553.128 365.019 554.344C365.019 555.571 365.206 556.68 365.579 557.672C365.952 558.653 366.512 559.432 367.259 560.008C368.016 560.584 368.96 560.872 370.091 560.872ZM392.229 570.68L395.573 561.592L395.621 564.28L388.069 545.72H391.061L396.981 560.648H395.957L401.509 545.72H404.405L394.997 570.68H392.229ZM414.422 563.48C412.705 563.48 411.222 563.091 409.974 562.312C408.737 561.533 407.782 560.456 407.11 559.08C406.438 557.704 406.102 556.125 406.102 554.344C406.102 552.531 406.444 550.941 407.126 549.576C407.809 548.211 408.774 547.149 410.022 546.392C411.27 545.624 412.737 545.24 414.422 545.24C416.15 545.24 417.638 545.629 418.886 546.408C420.134 547.176 421.089 548.248 421.75 549.624C422.422 550.989 422.758 552.563 422.758 554.344C422.758 556.147 422.422 557.736 421.75 559.112C421.078 560.477 420.118 561.549 418.87 562.328C417.622 563.096 416.14 563.48 414.422 563.48ZM414.422 560.776C416.214 560.776 417.548 560.179 418.422 558.984C419.297 557.789 419.734 556.243 419.734 554.344C419.734 552.392 419.292 550.84 418.406 549.688C417.521 548.525 416.193 547.944 414.422 547.944C413.217 547.944 412.225 548.216 411.446 548.76C410.668 549.304 410.086 550.056 409.702 551.016C409.318 551.976 409.126 553.085 409.126 554.344C409.126 556.285 409.574 557.843 410.47 559.016C411.366 560.189 412.684 560.776 414.422 560.776ZM433.481 563.448C432.372 563.448 431.417 563.272 430.617 562.92C429.828 562.568 429.172 562.099 428.649 561.512C428.127 560.925 427.716 560.275 427.417 559.56C427.119 558.845 426.905 558.115 426.777 557.368C426.66 556.621 426.601 555.923 426.601 555.272V545.72H429.481V554.376C429.481 555.187 429.556 555.971 429.705 556.728C429.855 557.485 430.105 558.168 430.457 558.776C430.82 559.384 431.3 559.864 431.897 560.216C432.505 560.568 433.263 560.744 434.169 560.744C434.884 560.744 435.535 560.621 436.121 560.376C436.708 560.131 437.209 559.768 437.625 559.288C438.041 558.797 438.361 558.179 438.585 557.432C438.809 556.685 438.921 555.816 438.921 554.824L440.793 555.4C440.793 557.064 440.489 558.499 439.881 559.704C439.284 560.909 438.436 561.837 437.337 562.488C436.249 563.128 434.964 563.448 433.481 563.448ZM439.241 563V558.376H438.921V545.72H441.785V563H439.241ZM446.905 563V545.72H449.449V549.896L449.033 549.352C449.236 548.819 449.497 548.328 449.817 547.88C450.148 547.432 450.516 547.064 450.921 546.776C451.369 546.413 451.876 546.136 452.441 545.944C453.006 545.752 453.582 545.64 454.169 545.608C454.756 545.565 455.305 545.603 455.817 545.72V548.392C455.22 548.232 454.564 548.189 453.849 548.264C453.134 548.339 452.473 548.6 451.865 549.048C451.31 549.443 450.878 549.923 450.569 550.488C450.27 551.053 450.062 551.667 449.945 552.328C449.828 552.979 449.769 553.645 449.769 554.328V563H446.905ZM487.185 563L487.201 551.944C487.201 550.653 486.854 549.645 486.161 548.92C485.478 548.184 484.587 547.816 483.489 547.816C482.849 547.816 482.241 547.965 481.665 548.264C481.089 548.552 480.619 549.011 480.257 549.64C479.894 550.259 479.713 551.053 479.713 552.024L478.209 551.416C478.187 550.189 478.438 549.117 478.961 548.2C479.494 547.272 480.219 546.552 481.137 546.04C482.054 545.528 483.089 545.272 484.241 545.272C486.043 545.272 487.462 545.821 488.497 546.92C489.531 548.008 490.049 549.475 490.049 551.32L490.033 563H487.185ZM466.513 563V545.72H469.057V550.344H469.377V563H466.513ZM476.865 563L476.881 552.056C476.881 550.733 476.539 549.699 475.857 548.952C475.174 548.195 474.267 547.816 473.137 547.816C472.017 547.816 471.11 548.2 470.417 548.968C469.723 549.736 469.377 550.755 469.377 552.024L467.873 551.128C467.873 550.008 468.139 549.005 468.673 548.12C469.206 547.235 469.931 546.541 470.849 546.04C471.766 545.528 472.806 545.272 473.969 545.272C475.131 545.272 476.145 545.517 477.009 546.008C477.873 546.499 478.539 547.203 479.009 548.12C479.478 549.027 479.713 550.109 479.713 551.368L479.697 563H476.865ZM502.188 563.48C500.492 563.48 499.009 563.107 497.74 562.36C496.481 561.603 495.5 560.552 494.796 559.208C494.092 557.853 493.74 556.275 493.74 554.472C493.74 552.584 494.087 550.952 494.78 549.576C495.473 548.189 496.439 547.123 497.676 546.376C498.924 545.619 500.385 545.24 502.06 545.24C503.799 545.24 505.276 545.64 506.492 546.44C507.719 547.24 508.636 548.381 509.244 549.864C509.863 551.347 510.129 553.112 510.044 555.16H507.164V554.136C507.132 552.013 506.7 550.429 505.868 549.384C505.036 548.328 503.799 547.8 502.156 547.8C500.396 547.8 499.057 548.365 498.14 549.496C497.223 550.627 496.764 552.248 496.764 554.36C496.764 556.397 497.223 557.976 498.14 559.096C499.057 560.216 500.364 560.776 502.06 560.776C503.201 560.776 504.193 560.515 505.036 559.992C505.879 559.469 506.54 558.717 507.02 557.736L509.756 558.68C509.084 560.205 508.071 561.389 506.716 562.232C505.372 563.064 503.863 563.48 502.188 563.48ZM495.804 555.16V552.872H508.572V555.16H495.804ZM521.734 563.48C520.038 563.48 518.556 563.107 517.286 562.36C516.028 561.603 515.046 560.552 514.342 559.208C513.638 557.853 513.286 556.275 513.286 554.472C513.286 552.584 513.633 550.952 514.326 549.576C515.02 548.189 515.985 547.123 517.222 546.376C518.47 545.619 519.932 545.24 521.606 545.24C523.345 545.24 524.822 545.64 526.038 546.44C527.265 547.24 528.182 548.381 528.79 549.864C529.409 551.347 529.676 553.112 529.59 555.16H526.71V554.136C526.678 552.013 526.246 550.429 525.414 549.384C524.582 548.328 523.345 547.8 521.702 547.8C519.942 547.8 518.604 548.365 517.686 549.496C516.769 550.627 516.31 552.248 516.31 554.36C516.31 556.397 516.769 557.976 517.686 559.096C518.604 560.216 519.91 560.776 521.606 560.776C522.748 560.776 523.74 560.515 524.582 559.992C525.425 559.469 526.086 558.717 526.566 557.736L529.302 558.68C528.63 560.205 527.617 561.389 526.262 562.232C524.918 563.064 523.409 563.48 521.734 563.48ZM515.35 555.16V552.872H528.118V555.16H515.35ZM543.44 563C542.416 563.203 541.403 563.283 540.4 563.24C539.408 563.208 538.523 563.011 537.744 562.648C536.966 562.275 536.374 561.699 535.968 560.92C535.627 560.237 535.44 559.549 535.408 558.856C535.387 558.152 535.376 557.357 535.376 556.472V540.92H538.224V556.344C538.224 557.048 538.23 557.651 538.24 558.152C538.262 558.653 538.374 559.085 538.576 559.448C538.96 560.131 539.568 560.531 540.4 560.648C541.243 560.765 542.256 560.733 543.44 560.552V563ZM531.872 548.072V545.72H543.44V548.072H531.872ZM547.909 542.664V539.72H550.757V542.664H547.909ZM547.909 563V545.72H550.757V563H547.909ZM568.501 563V554.344C568.501 553.523 568.427 552.733 568.277 551.976C568.139 551.219 567.888 550.541 567.525 549.944C567.173 549.336 566.693 548.856 566.085 548.504C565.488 548.152 564.731 547.976 563.813 547.976C563.099 547.976 562.448 548.099 561.861 548.344C561.285 548.579 560.789 548.941 560.373 549.432C559.957 549.923 559.632 550.541 559.397 551.288C559.173 552.024 559.061 552.893 559.061 553.896L557.189 553.32C557.189 551.645 557.488 550.211 558.085 549.016C558.693 547.811 559.541 546.888 560.629 546.248C561.728 545.597 563.019 545.272 564.501 545.272C565.621 545.272 566.576 545.448 567.365 545.8C568.155 546.152 568.811 546.621 569.333 547.208C569.856 547.784 570.267 548.435 570.565 549.16C570.864 549.875 571.072 550.605 571.189 551.352C571.317 552.088 571.381 552.787 571.381 553.448V563H568.501ZM556.181 563V545.72H558.741V550.344H559.061V563H556.181ZM583.173 571.16C582.267 571.16 581.381 571.021 580.517 570.744C579.653 570.467 578.859 570.045 578.133 569.48C577.419 568.925 576.821 568.221 576.341 567.368L578.949 565.992C579.376 566.835 579.979 567.448 580.757 567.832C581.547 568.216 582.357 568.408 583.189 568.408C584.288 568.408 585.2 568.205 585.925 567.8C586.651 567.405 587.184 566.813 587.525 566.024C587.877 565.235 588.048 564.253 588.037 563.08V558.36H588.373V545.72H590.901V563.112C590.901 563.581 590.885 564.035 590.853 564.472C590.832 564.909 590.779 565.341 590.693 565.768C590.469 566.995 590.027 568.003 589.365 568.792C588.704 569.592 587.851 570.184 586.805 570.568C585.76 570.963 584.549 571.16 583.173 571.16ZM582.965 563.48C581.355 563.48 579.973 563.08 578.821 562.28C577.669 561.469 576.779 560.376 576.149 559C575.531 557.624 575.221 556.072 575.221 554.344C575.221 552.616 575.531 551.064 576.149 549.688C576.779 548.312 577.669 547.229 578.821 546.44C579.973 545.64 581.349 545.24 582.949 545.24C584.581 545.24 585.952 545.635 587.061 546.424C588.171 547.213 589.008 548.296 589.573 549.672C590.149 551.048 590.437 552.605 590.437 554.344C590.437 556.061 590.149 557.613 589.573 559C589.008 560.376 588.171 561.469 587.061 562.28C585.952 563.08 584.587 563.48 582.965 563.48ZM583.317 560.872C584.48 560.872 585.435 560.595 586.181 560.04C586.928 559.475 587.477 558.701 587.829 557.72C588.192 556.728 588.373 555.603 588.373 554.344C588.373 553.064 588.192 551.939 587.829 550.968C587.477 549.987 586.933 549.224 586.197 548.68C585.461 548.125 584.528 547.848 583.397 547.848C582.224 547.848 581.253 548.136 580.485 548.712C579.728 549.288 579.163 550.067 578.789 551.048C578.427 552.029 578.245 553.128 578.245 554.344C578.245 555.571 578.432 556.68 578.805 557.672C579.179 558.653 579.739 559.432 580.485 560.008C581.243 560.584 582.187 560.872 583.317 560.872ZM603.055 563V545.72H605.599V549.896L605.183 549.352C605.386 548.819 605.647 548.328 605.967 547.88C606.298 547.432 606.666 547.064 607.071 546.776C607.519 546.413 608.026 546.136 608.591 545.944C609.156 545.752 609.732 545.64 610.319 545.608C610.906 545.565 611.455 545.603 611.967 545.72V548.392C611.37 548.232 610.714 548.189 609.999 548.264C609.284 548.339 608.623 548.6 608.015 549.048C607.46 549.443 607.028 549.923 606.719 550.488C606.42 551.053 606.212 551.667 606.095 552.328C605.978 552.979 605.919 553.645 605.919 554.328V563H603.055ZM622.68 563.48C620.963 563.48 619.48 563.091 618.232 562.312C616.995 561.533 616.04 560.456 615.368 559.08C614.696 557.704 614.36 556.125 614.36 554.344C614.36 552.531 614.701 550.941 615.384 549.576C616.067 548.211 617.032 547.149 618.28 546.392C619.528 545.624 620.995 545.24 622.68 545.24C624.408 545.24 625.896 545.629 627.144 546.408C628.392 547.176 629.347 548.248 630.008 549.624C630.68 550.989 631.016 552.563 631.016 554.344C631.016 556.147 630.68 557.736 630.008 559.112C629.336 560.477 628.376 561.549 627.128 562.328C625.88 563.096 624.397 563.48 622.68 563.48ZM622.68 560.776C624.472 560.776 625.805 560.179 626.68 558.984C627.555 557.789 627.992 556.243 627.992 554.344C627.992 552.392 627.549 550.84 626.664 549.688C625.779 548.525 624.451 547.944 622.68 547.944C621.475 547.944 620.483 548.216 619.704 548.76C618.925 549.304 618.344 550.056 617.96 551.016C617.576 551.976 617.384 553.085 617.384 554.344C617.384 556.285 617.832 557.843 618.728 559.016C619.624 560.189 620.941 560.776 622.68 560.776ZM642.539 563.48C640.821 563.48 639.339 563.091 638.091 562.312C636.853 561.533 635.899 560.456 635.227 559.08C634.555 557.704 634.219 556.125 634.219 554.344C634.219 552.531 634.56 550.941 635.243 549.576C635.925 548.211 636.891 547.149 638.139 546.392C639.387 545.624 640.853 545.24 642.539 545.24C644.267 545.24 645.755 545.629 647.003 546.408C648.251 547.176 649.205 548.248 649.867 549.624C650.539 550.989 650.875 552.563 650.875 554.344C650.875 556.147 650.539 557.736 649.867 559.112C649.195 560.477 648.235 561.549 646.987 562.328C645.739 563.096 644.256 563.48 642.539 563.48ZM642.539 560.776C644.331 560.776 645.664 560.179 646.539 558.984C647.413 557.789 647.851 556.243 647.851 554.344C647.851 552.392 647.408 550.84 646.523 549.688C645.637 548.525 644.309 547.944 642.539 547.944C641.333 547.944 640.341 548.216 639.563 548.76C638.784 549.304 638.203 550.056 637.819 551.016C637.435 551.976 637.243 553.085 637.243 554.344C637.243 556.285 637.691 557.843 638.587 559.016C639.483 560.189 640.8 560.776 642.539 560.776ZM675.693 563L675.709 551.944C675.709 550.653 675.363 549.645 674.669 548.92C673.987 548.184 673.096 547.816 671.997 547.816C671.357 547.816 670.749 547.965 670.173 548.264C669.597 548.552 669.128 549.011 668.765 549.64C668.403 550.259 668.221 551.053 668.221 552.024L666.717 551.416C666.696 550.189 666.947 549.117 667.469 548.2C668.003 547.272 668.728 546.552 669.645 546.04C670.563 545.528 671.597 545.272 672.749 545.272C674.552 545.272 675.971 545.821 677.005 546.92C678.04 548.008 678.557 549.475 678.557 551.32L678.541 563H675.693ZM655.021 563V545.72H657.565V550.344H657.885V563H655.021ZM665.373 563L665.389 552.056C665.389 550.733 665.048 549.699 664.365 548.952C663.683 548.195 662.776 547.816 661.645 547.816C660.525 547.816 659.619 548.2 658.925 548.968C658.232 549.736 657.885 550.755 657.885 552.024L656.381 551.128C656.381 550.008 656.648 549.005 657.181 548.12C657.715 547.235 658.44 546.541 659.357 546.04C660.275 545.528 661.315 545.272 662.477 545.272C663.64 545.272 664.653 545.517 665.517 546.008C666.381 546.499 667.048 547.203 667.517 548.12C667.987 549.027 668.221 550.109 668.221 551.368L668.205 563H665.373ZM257.56 580.664V577.72H260.408V580.664H257.56ZM257.56 601V583.72H260.408V601H257.56ZM272.377 601.464C270.318 601.464 268.627 601.016 267.305 600.12C265.993 599.213 265.187 597.949 264.889 596.328L267.801 595.864C268.035 596.803 268.574 597.549 269.417 598.104C270.259 598.648 271.305 598.92 272.553 598.92C273.737 598.92 274.665 598.675 275.337 598.184C276.009 597.693 276.345 597.027 276.345 596.184C276.345 595.693 276.233 595.299 276.009 595C275.785 594.691 275.321 594.403 274.617 594.136C273.923 593.869 272.873 593.549 271.465 593.176C269.939 592.771 268.739 592.349 267.865 591.912C266.99 591.475 266.366 590.968 265.993 590.392C265.619 589.816 265.433 589.117 265.433 588.296C265.433 587.283 265.71 586.397 266.265 585.64C266.819 584.872 267.593 584.28 268.585 583.864C269.587 583.448 270.75 583.24 272.073 583.24C273.385 583.24 274.558 583.448 275.593 583.864C276.627 584.28 277.459 584.872 278.089 585.64C278.729 586.397 279.107 587.283 279.225 588.296L276.313 588.824C276.174 587.896 275.726 587.165 274.969 586.632C274.222 586.099 273.257 585.816 272.073 585.784C270.953 585.741 270.041 585.939 269.337 586.376C268.643 586.813 268.297 587.405 268.297 588.152C268.297 588.568 268.425 588.925 268.681 589.224C268.947 589.523 269.433 589.805 270.137 590.072C270.851 590.339 271.886 590.643 273.241 590.984C274.766 591.368 275.966 591.789 276.841 592.248C277.726 592.696 278.355 593.229 278.729 593.848C279.102 594.456 279.289 595.208 279.289 596.104C279.289 597.768 278.675 599.08 277.449 600.04C276.222 600.989 274.531 601.464 272.377 601.464ZM297.992 601.48C296.296 601.48 294.813 601.107 293.544 600.36C292.285 599.603 291.304 598.552 290.6 597.208C289.896 595.853 289.544 594.275 289.544 592.472C289.544 590.584 289.89 588.952 290.584 587.576C291.277 586.189 292.242 585.123 293.48 584.376C294.728 583.619 296.189 583.24 297.864 583.24C299.602 583.24 301.08 583.64 302.296 584.44C303.522 585.24 304.44 586.381 305.048 587.864C305.666 589.347 305.933 591.112 305.848 593.16H302.968V592.136C302.936 590.013 302.504 588.429 301.672 587.384C300.84 586.328 299.602 585.8 297.96 585.8C296.2 585.8 294.861 586.365 293.944 587.496C293.026 588.627 292.568 590.248 292.568 592.36C292.568 594.397 293.026 595.976 293.944 597.096C294.861 598.216 296.168 598.776 297.864 598.776C299.005 598.776 299.997 598.515 300.84 597.992C301.682 597.469 302.344 596.717 302.824 595.736L305.56 596.68C304.888 598.205 303.874 599.389 302.52 600.232C301.176 601.064 299.666 601.48 297.992 601.48ZM291.608 593.16V590.872H304.376V593.16H291.608ZM314.65 601.48C313.359 601.48 312.276 601.245 311.402 600.776C310.538 600.296 309.882 599.667 309.434 598.888C308.996 598.109 308.778 597.256 308.778 596.328C308.778 595.421 308.948 594.637 309.29 593.976C309.642 593.304 310.132 592.749 310.762 592.312C311.391 591.864 312.143 591.512 313.018 591.256C313.839 591.032 314.756 590.84 315.77 590.68C316.794 590.509 317.828 590.355 318.874 590.216C319.919 590.077 320.895 589.944 321.802 589.816L320.778 590.408C320.81 588.872 320.5 587.736 319.85 587C319.21 586.264 318.1 585.896 316.522 585.896C315.476 585.896 314.559 586.136 313.77 586.616C312.991 587.085 312.442 587.853 312.122 588.92L309.418 588.104C309.834 586.589 310.639 585.4 311.834 584.536C313.028 583.672 314.602 583.24 316.554 583.24C318.122 583.24 319.466 583.523 320.586 584.088C321.716 584.643 322.527 585.485 323.018 586.616C323.263 587.149 323.418 587.731 323.482 588.36C323.546 588.979 323.578 589.629 323.578 590.312V601H321.05V596.856L321.642 597.24C320.991 598.637 320.079 599.693 318.906 600.408C317.743 601.123 316.324 601.48 314.65 601.48ZM315.082 599.096C316.106 599.096 316.991 598.915 317.738 598.552C318.495 598.179 319.103 597.693 319.562 597.096C320.02 596.488 320.319 595.827 320.458 595.112C320.618 594.579 320.703 593.987 320.714 593.336C320.735 592.675 320.746 592.168 320.746 591.816L321.738 592.248C320.81 592.376 319.898 592.499 319.002 592.616C318.106 592.733 317.258 592.861 316.458 593C315.658 593.128 314.938 593.283 314.298 593.464C313.828 593.613 313.386 593.805 312.97 594.04C312.564 594.275 312.234 594.579 311.978 594.952C311.732 595.315 311.61 595.768 311.61 596.312C311.61 596.781 311.727 597.229 311.962 597.656C312.207 598.083 312.58 598.429 313.082 598.696C313.594 598.963 314.26 599.096 315.082 599.096ZM334.905 601.464C332.847 601.464 331.156 601.016 329.833 600.12C328.521 599.213 327.716 597.949 327.417 596.328L330.329 595.864C330.564 596.803 331.103 597.549 331.945 598.104C332.788 598.648 333.833 598.92 335.081 598.92C336.265 598.92 337.193 598.675 337.865 598.184C338.537 597.693 338.873 597.027 338.873 596.184C338.873 595.693 338.761 595.299 338.537 595C338.313 594.691 337.849 594.403 337.145 594.136C336.452 593.869 335.401 593.549 333.993 593.176C332.468 592.771 331.268 592.349 330.393 591.912C329.519 591.475 328.895 590.968 328.521 590.392C328.148 589.816 327.961 589.117 327.961 588.296C327.961 587.283 328.239 586.397 328.793 585.64C329.348 584.872 330.121 584.28 331.113 583.864C332.116 583.448 333.279 583.24 334.601 583.24C335.913 583.24 337.087 583.448 338.121 583.864C339.156 584.28 339.988 584.872 340.617 585.64C341.257 586.397 341.636 587.283 341.753 588.296L338.841 588.824C338.703 587.896 338.255 587.165 337.497 586.632C336.751 586.099 335.785 585.816 334.601 585.784C333.481 585.741 332.569 585.939 331.865 586.376C331.172 586.813 330.825 587.405 330.825 588.152C330.825 588.568 330.953 588.925 331.209 589.224C331.476 589.523 331.961 589.805 332.665 590.072C333.38 590.339 334.415 590.643 335.769 590.984C337.295 591.368 338.495 591.789 339.369 592.248C340.255 592.696 340.884 593.229 341.257 593.848C341.631 594.456 341.817 595.208 341.817 596.104C341.817 597.768 341.204 599.08 339.977 600.04C338.751 600.989 337.06 601.464 334.905 601.464ZM347.761 608.68L351.105 599.592L351.153 602.28L343.601 583.72H346.593L352.513 598.648H351.489L357.041 583.72H359.937L350.529 608.68H347.761ZM382.57 601V592.344C382.57 591.523 382.496 590.733 382.346 589.976C382.208 589.219 381.957 588.541 381.594 587.944C381.242 587.336 380.762 586.856 380.154 586.504C379.557 586.152 378.8 585.976 377.882 585.976C377.168 585.976 376.517 586.099 375.93 586.344C375.354 586.579 374.858 586.941 374.442 587.432C374.026 587.923 373.701 588.541 373.466 589.288C373.242 590.024 373.13 590.893 373.13 591.896L371.258 591.32C371.258 589.645 371.557 588.211 372.154 587.016C372.762 585.811 373.61 584.888 374.698 584.248C375.797 583.597 377.088 583.272 378.57 583.272C379.69 583.272 380.645 583.448 381.434 583.8C382.224 584.152 382.88 584.621 383.402 585.208C383.925 585.784 384.336 586.435 384.634 587.16C384.933 587.875 385.141 588.605 385.258 589.352C385.386 590.088 385.45 590.787 385.45 591.448V601H382.57ZM370.25 601V583.72H372.81V588.344H373.13V601H370.25ZM397.454 601.48C395.736 601.48 394.254 601.091 393.006 600.312C391.768 599.533 390.814 598.456 390.142 597.08C389.47 595.704 389.134 594.125 389.134 592.344C389.134 590.531 389.475 588.941 390.158 587.576C390.84 586.211 391.806 585.149 393.054 584.392C394.302 583.624 395.768 583.24 397.454 583.24C399.182 583.24 400.67 583.629 401.918 584.408C403.166 585.176 404.12 586.248 404.782 587.624C405.454 588.989 405.79 590.563 405.79 592.344C405.79 594.147 405.454 595.736 404.782 597.112C404.11 598.477 403.15 599.549 401.902 600.328C400.654 601.096 399.171 601.48 397.454 601.48ZM397.454 598.776C399.246 598.776 400.579 598.179 401.454 596.984C402.328 595.789 402.766 594.243 402.766 592.344C402.766 590.392 402.323 588.84 401.438 587.688C400.552 586.525 399.224 585.944 397.454 585.944C396.248 585.944 395.256 586.216 394.478 586.76C393.699 587.304 393.118 588.056 392.734 589.016C392.35 589.976 392.158 591.085 392.158 592.344C392.158 594.285 392.606 595.843 393.502 597.016C394.398 598.189 395.715 598.776 397.454 598.776ZM413.007 601L407.727 583.704L410.559 583.72L414.415 596.36L418.303 583.72H420.815L424.687 596.36L428.559 583.72H431.375L426.095 601H423.727L419.551 587.864L415.375 601H413.007ZM436.505 601V598.056H439.353V601H436.505ZM436.505 595.24V577.96H439.353V595.24H436.505Z" fill="#454545"/>
<path d="M264.72 667V642.72H255.4V638.2H278.86V642.72H269.54V667H264.72ZM280.866 667V645.4H285.126V650.66L284.606 649.98C284.872 649.26 285.226 648.607 285.666 648.02C286.119 647.42 286.659 646.927 287.286 646.54C287.819 646.18 288.406 645.9 289.046 645.7C289.699 645.487 290.366 645.36 291.046 645.32C291.726 645.267 292.386 645.293 293.026 645.4V649.9C292.386 649.713 291.646 649.653 290.806 649.72C289.979 649.787 289.232 650.02 288.566 650.42C287.899 650.78 287.352 651.24 286.926 651.8C286.512 652.36 286.206 653 286.006 653.72C285.806 654.427 285.706 655.193 285.706 656.02V667H280.866ZM299.818 676.6L303.978 665.18L304.058 668.54L294.638 645.4H299.658L306.338 662.52H305.058L311.558 645.4H316.378L304.338 676.6H299.818ZM328.969 667V638.2H333.789V651.56L345.289 638.2H351.209L338.829 652.32L352.049 667H345.929L333.789 653.56V667H328.969ZM361.707 667.6C360.147 667.6 358.827 667.307 357.747 666.72C356.667 666.12 355.847 665.327 355.287 664.34C354.741 663.353 354.467 662.267 354.467 661.08C354.467 660.04 354.641 659.107 354.987 658.28C355.334 657.44 355.867 656.72 356.587 656.12C357.307 655.507 358.241 655.007 359.387 654.62C360.254 654.34 361.267 654.087 362.427 653.86C363.601 653.633 364.867 653.427 366.227 653.24C367.601 653.04 369.034 652.827 370.527 652.6L368.807 653.58C368.821 652.087 368.487 650.987 367.807 650.28C367.127 649.573 365.981 649.22 364.367 649.22C363.394 649.22 362.454 649.447 361.547 649.9C360.641 650.353 360.007 651.133 359.647 652.24L355.247 650.86C355.781 649.033 356.794 647.567 358.287 646.46C359.794 645.353 361.821 644.8 364.367 644.8C366.287 644.8 367.974 645.113 369.427 645.74C370.894 646.367 371.981 647.393 372.687 648.82C373.074 649.58 373.307 650.36 373.387 651.16C373.467 651.947 373.507 652.807 373.507 653.74V667H369.287V662.32L369.987 663.08C369.014 664.64 367.874 665.787 366.567 666.52C365.274 667.24 363.654 667.6 361.707 667.6ZM362.667 663.76C363.761 663.76 364.694 663.567 365.467 663.18C366.241 662.793 366.854 662.32 367.307 661.76C367.774 661.2 368.087 660.673 368.247 660.18C368.501 659.567 368.641 658.867 368.667 658.08C368.707 657.28 368.727 656.633 368.727 656.14L370.207 656.58C368.754 656.807 367.507 657.007 366.467 657.18C365.427 657.353 364.534 657.52 363.787 657.68C363.041 657.827 362.381 657.993 361.807 658.18C361.247 658.38 360.774 658.613 360.387 658.88C360.001 659.147 359.701 659.453 359.487 659.8C359.287 660.147 359.187 660.553 359.187 661.02C359.187 661.553 359.321 662.027 359.587 662.44C359.854 662.84 360.241 663.16 360.747 663.4C361.267 663.64 361.907 663.76 362.667 663.76ZM394.454 667V656.6C394.454 655.92 394.407 655.167 394.314 654.34C394.221 653.513 394.001 652.72 393.654 651.96C393.321 651.187 392.814 650.553 392.134 650.06C391.467 649.567 390.561 649.32 389.414 649.32C388.801 649.32 388.194 649.42 387.594 649.62C386.994 649.82 386.447 650.167 385.954 650.66C385.474 651.14 385.087 651.807 384.794 652.66C384.501 653.5 384.354 654.58 384.354 655.9L381.494 654.68C381.494 652.84 381.847 651.173 382.554 649.68C383.274 648.187 384.327 647 385.714 646.12C387.101 645.227 388.807 644.78 390.834 644.78C392.434 644.78 393.754 645.047 394.794 645.58C395.834 646.113 396.661 646.793 397.274 647.62C397.887 648.447 398.341 649.327 398.634 650.26C398.927 651.193 399.114 652.08 399.194 652.92C399.287 653.747 399.334 654.42 399.334 654.94V667H394.454ZM379.474 667V645.4H383.774V652.1H384.354V667H379.474ZM405.753 642.12V637.7H410.573V642.12H405.753ZM405.753 667V645.4H410.573V667H405.753ZM432.304 667V656.6C432.304 655.92 432.257 655.167 432.164 654.34C432.071 653.513 431.851 652.72 431.504 651.96C431.171 651.187 430.664 650.553 429.984 650.06C429.317 649.567 428.411 649.32 427.264 649.32C426.651 649.32 426.044 649.42 425.444 649.62C424.844 649.82 424.297 650.167 423.804 650.66C423.324 651.14 422.937 651.807 422.644 652.66C422.351 653.5 422.204 654.58 422.204 655.9L419.344 654.68C419.344 652.84 419.697 651.173 420.404 649.68C421.124 648.187 422.177 647 423.564 646.12C424.951 645.227 426.657 644.78 428.684 644.78C430.284 644.78 431.604 645.047 432.644 645.58C433.684 646.113 434.511 646.793 435.124 647.62C435.737 648.447 436.191 649.327 436.484 650.26C436.777 651.193 436.964 652.08 437.044 652.92C437.137 653.747 437.184 654.42 437.184 654.94V667H432.304ZM417.324 667V645.4H421.624V652.1H422.204V667H417.324ZM443.603 642.12V637.7H448.423V642.12H443.603ZM443.603 667V645.4H448.423V667H443.603ZM470.102 667L461.682 638.2H466.742L472.482 659L478.202 638.24L483.262 638.2L489.002 659L494.722 638.2H499.782L491.382 667H486.622L480.722 646.52L474.862 667H470.102ZM511.003 667.6C508.843 667.6 506.956 667.113 505.343 666.14C503.729 665.167 502.476 663.827 501.583 662.12C500.703 660.4 500.263 658.427 500.263 656.2C500.263 653.933 500.716 651.947 501.623 650.24C502.529 648.533 503.789 647.2 505.403 646.24C507.016 645.28 508.883 644.8 511.003 644.8C513.176 644.8 515.069 645.287 516.683 646.26C518.296 647.233 519.549 648.58 520.443 650.3C521.336 652.007 521.783 653.973 521.783 656.2C521.783 658.44 521.329 660.42 520.423 662.14C519.529 663.847 518.276 665.187 516.663 666.16C515.049 667.12 513.163 667.6 511.003 667.6ZM511.003 663.08C512.923 663.08 514.349 662.44 515.283 661.16C516.216 659.88 516.683 658.227 516.683 656.2C516.683 654.107 516.209 652.44 515.263 651.2C514.316 649.947 512.896 649.32 511.003 649.32C509.709 649.32 508.643 649.613 507.803 650.2C506.976 650.773 506.363 651.58 505.963 652.62C505.563 653.647 505.363 654.84 505.363 656.2C505.363 658.293 505.836 659.967 506.783 661.22C507.743 662.46 509.149 663.08 511.003 663.08ZM526.989 667V645.4H531.249V650.66L530.729 649.98C530.996 649.26 531.349 648.607 531.789 648.02C532.242 647.42 532.782 646.927 533.409 646.54C533.942 646.18 534.529 645.9 535.169 645.7C535.822 645.487 536.489 645.36 537.169 645.32C537.849 645.267 538.509 645.293 539.149 645.4V649.9C538.509 649.713 537.769 649.653 536.929 649.72C536.102 649.787 535.356 650.02 534.689 650.42C534.022 650.78 533.476 651.24 533.049 651.8C532.636 652.36 532.329 653 532.129 653.72C531.929 654.427 531.829 655.193 531.829 656.02V667H526.989ZM543.726 667L543.766 638.2H548.646V655.8L556.546 645.4H562.566L554.186 656.2L563.286 667H556.906L548.646 656.6V667H543.726ZM574.038 667.6C571.372 667.6 569.205 667 567.538 665.8C565.872 664.6 564.858 662.913 564.498 660.74L569.418 659.98C569.672 661.047 570.232 661.887 571.098 662.5C571.965 663.113 573.058 663.42 574.378 663.42C575.538 663.42 576.432 663.193 577.058 662.74C577.698 662.273 578.018 661.64 578.018 660.84C578.018 660.347 577.898 659.953 577.658 659.66C577.432 659.353 576.925 659.06 576.138 658.78C575.352 658.5 574.145 658.147 572.518 657.72C570.705 657.24 569.265 656.727 568.198 656.18C567.132 655.62 566.365 654.96 565.898 654.2C565.432 653.44 565.198 652.52 565.198 651.44C565.198 650.093 565.552 648.92 566.258 647.92C566.965 646.92 567.952 646.153 569.218 645.62C570.485 645.073 571.978 644.8 573.698 644.8C575.378 644.8 576.865 645.06 578.158 645.58C579.465 646.1 580.518 646.84 581.318 647.8C582.118 648.76 582.612 649.887 582.798 651.18L577.878 652.06C577.758 651.14 577.338 650.413 576.618 649.88C575.912 649.347 574.965 649.047 573.778 648.98C572.645 648.913 571.732 649.087 571.038 649.5C570.345 649.9 569.998 650.467 569.998 651.2C569.998 651.613 570.138 651.967 570.418 652.26C570.698 652.553 571.258 652.847 572.098 653.14C572.952 653.433 574.218 653.793 575.898 654.22C577.618 654.66 578.992 655.167 580.018 655.74C581.058 656.3 581.805 656.973 582.258 657.76C582.725 658.547 582.958 659.5 582.958 660.62C582.958 662.793 582.165 664.5 580.578 665.74C579.005 666.98 576.825 667.6 574.038 667.6ZM598.519 667.6C596.412 667.6 594.646 667.1 593.219 666.1C591.792 665.1 590.719 663.74 589.999 662.02C589.279 660.287 588.919 658.347 588.919 656.2C588.919 654.027 589.279 652.08 589.999 650.36C590.719 648.64 591.772 647.287 593.159 646.3C594.559 645.3 596.286 644.8 598.339 644.8C600.379 644.8 602.146 645.3 603.639 646.3C605.146 647.287 606.312 648.64 607.139 650.36C607.966 652.067 608.379 654.013 608.379 656.2C608.379 658.36 607.972 660.3 607.159 662.02C606.346 663.74 605.199 665.1 603.719 666.1C602.239 667.1 600.506 667.6 598.519 667.6ZM588.099 676.6V645.4H592.359V660.56H592.959V676.6H588.099ZM597.779 663.28C599.032 663.28 600.066 662.967 600.879 662.34C601.692 661.713 602.292 660.867 602.679 659.8C603.079 658.72 603.279 657.52 603.279 656.2C603.279 654.893 603.079 653.707 602.679 652.64C602.279 651.56 601.659 650.707 600.819 650.08C599.979 649.44 598.912 649.12 597.619 649.12C596.392 649.12 595.392 649.42 594.619 650.02C593.846 650.607 593.272 651.433 592.899 652.5C592.539 653.553 592.359 654.787 592.359 656.2C592.359 657.6 592.539 658.833 592.899 659.9C593.272 660.967 593.852 661.8 594.639 662.4C595.439 662.987 596.486 663.28 597.779 663.28ZM619.628 667.6C618.068 667.6 616.748 667.307 615.668 666.72C614.588 666.12 613.768 665.327 613.208 664.34C612.661 663.353 612.388 662.267 612.388 661.08C612.388 660.04 612.561 659.107 612.908 658.28C613.254 657.44 613.788 656.72 614.508 656.12C615.228 655.507 616.161 655.007 617.308 654.62C618.174 654.34 619.188 654.087 620.348 653.86C621.521 653.633 622.788 653.427 624.148 653.24C625.521 653.04 626.954 652.827 628.448 652.6L626.728 653.58C626.741 652.087 626.408 650.987 625.728 650.28C625.048 649.573 623.901 649.22 622.288 649.22C621.314 649.22 620.374 649.447 619.468 649.9C618.561 650.353 617.928 651.133 617.568 652.24L613.168 650.86C613.701 649.033 614.714 647.567 616.208 646.46C617.714 645.353 619.741 644.8 622.288 644.8C624.208 644.8 625.894 645.113 627.348 645.74C628.814 646.367 629.901 647.393 630.608 648.82C630.994 649.58 631.228 650.36 631.308 651.16C631.388 651.947 631.428 652.807 631.428 653.74V667H627.208V662.32L627.908 663.08C626.934 664.64 625.794 665.787 624.488 666.52C623.194 667.24 621.574 667.6 619.628 667.6ZM620.588 663.76C621.681 663.76 622.614 663.567 623.388 663.18C624.161 662.793 624.774 662.32 625.228 661.76C625.694 661.2 626.008 660.673 626.168 660.18C626.421 659.567 626.561 658.867 626.588 658.08C626.628 657.28 626.648 656.633 626.648 656.14L628.128 656.58C626.674 656.807 625.428 657.007 624.388 657.18C623.348 657.353 622.454 657.52 621.708 657.68C620.961 657.827 620.301 657.993 619.728 658.18C619.168 658.38 618.694 658.613 618.308 658.88C617.921 659.147 617.621 659.453 617.408 659.8C617.208 660.147 617.108 660.553 617.108 661.02C617.108 661.553 617.241 662.027 617.508 662.44C617.774 662.84 618.161 663.16 618.668 663.4C619.188 663.64 619.828 663.76 620.588 663.76ZM646.814 667.6C644.588 667.6 642.688 667.107 641.114 666.12C639.541 665.12 638.334 663.76 637.494 662.04C636.668 660.32 636.248 658.373 636.234 656.2C636.248 653.987 636.681 652.027 637.534 650.32C638.401 648.6 639.628 647.253 641.214 646.28C642.801 645.293 644.688 644.8 646.874 644.8C649.328 644.8 651.401 645.42 653.094 646.66C654.801 647.887 655.914 649.567 656.434 651.7L651.634 653C651.261 651.84 650.641 650.94 649.774 650.3C648.908 649.647 647.921 649.32 646.814 649.32C645.561 649.32 644.528 649.62 643.714 650.22C642.901 650.807 642.301 651.62 641.914 652.66C641.528 653.7 641.334 654.88 641.334 656.2C641.334 658.253 641.794 659.913 642.714 661.18C643.634 662.447 645.001 663.08 646.814 663.08C648.094 663.08 649.101 662.787 649.834 662.2C650.581 661.613 651.141 660.767 651.514 659.66L656.434 660.76C655.768 662.96 654.601 664.653 652.934 665.84C651.268 667.013 649.228 667.6 646.814 667.6ZM670.476 667.6C668.29 667.6 666.37 667.127 664.716 666.18C663.063 665.233 661.77 663.92 660.836 662.24C659.916 660.56 659.456 658.627 659.456 656.44C659.456 654.08 659.91 652.033 660.816 650.3C661.723 648.553 662.983 647.2 664.596 646.24C666.21 645.28 668.076 644.8 670.196 644.8C672.436 644.8 674.336 645.327 675.896 646.38C677.47 647.42 678.636 648.893 679.396 650.8C680.156 652.707 680.443 654.953 680.256 657.54H675.476V655.78C675.463 653.433 675.05 651.72 674.236 650.64C673.423 649.56 672.143 649.02 670.396 649.02C668.423 649.02 666.956 649.633 665.996 650.86C665.036 652.073 664.556 653.853 664.556 656.2C664.556 658.387 665.036 660.08 665.996 661.28C666.956 662.48 668.356 663.08 670.196 663.08C671.383 663.08 672.403 662.82 673.256 662.3C674.123 661.767 674.79 661 675.256 660L680.016 661.44C679.19 663.387 677.91 664.9 676.176 665.98C674.456 667.06 672.556 667.6 670.476 667.6ZM663.036 657.54V653.9H677.896V657.54H663.036ZM685.538 667V662.06H690.478V667H685.538Z" fill="#5162F6"/>
<circle cx="284.5" cy="486.5" r="29.5" fill="#5162F6"/>
<path d="M301 471.305L300.251 477.059C298.422 476.935 297.008 477.265 296.009 478.049C295.011 478.832 294.346 479.925 294.013 481.327C293.681 482.73 293.618 484.317 293.826 486.091H301V501H287.214V484.854C287.214 479.987 288.378 476.316 290.707 473.842C293.078 471.326 296.509 470.481 301 471.305ZM281.786 471.305L281.038 477.059C279.208 476.935 277.794 477.265 276.796 478.049C275.798 478.832 275.132 479.925 274.8 481.327C274.467 482.73 274.405 484.317 274.612 486.091H281.786V501H268V484.854C268 479.987 269.164 476.316 271.493 473.842C273.864 471.326 277.295 470.481 281.786 471.305Z" fill="white"/>
<defs>
<linearGradient id="paint0_linear_269_69" x1="-500" y1="-482.5" x2="985" y2="991" gradientUnits="userSpaceOnUse">
<stop stop-color="#0088CE"/>
<stop offset="0.645663" stop-color="#008ACF" stop-opacity="0.42"/>
<stop offset="1" stop-color="#BDDA57" stop-opacity="0.15"/>
</linearGradient>
</defs>
</svg>
